/* XPM */
static char *gftp_xpm[] = {
"52 19 12 1",
"0	c #324168",
"1	c #2B3349",
"2	c #47455A",
"3	c #70737A",
"4	c #6D3952",
"5	c #9296A0",
"6	c #A53845",
"7	c #B7B7BA",
"8	c #D3D3D4",
"9	c #E0E0E1",
"A	c #EEECEC",
"B	c #FFFFFF",
"0000000000000000000000000000000000000000000000000000",
"0000000000000000000000000000000000000000000000000000",
"0000000000000000000000000000000000055555555530000000",
"0000000000000000000000000000000000087999999970000000",
"0000000000000000000000000000000000007888888970000000",
"000000000000BBBBB0BBBBBB0BBBBB0000059988888970000000",
"000000000000BB000000BB000BB00BB000079988888972200000",
"00000BBBBB00BB000000BB000BB00BB000079988898972400000",
"0000BB00BB00BBBBB000BB000BB00BB000079988999A71400000",
"0000BB00BB00BB000000BB000BBBBB0000079999999A72600000",
"0000BB00BB00BB000000BB000BB000000007A988898A74600000",
"00000BBBBB00BB000000BB000BB0000000059A8999AA76640000",
"00000000BB0000000000000000000000000799AAAAA966440000",
"00000BBBB0000000000000000000000000057777777772000000",
"0000000000000000000000000000000000000023224220000000",
"0000000000000000000000000000000000003355533330000000",
"0000000000000000000000000000000000002224241220000000",
"0000000000000000000000000000000000000211111000000000",
"0000000000000000000000000000000000000000000000000000"
};
