<?xml version="1.0" encoding="UTF-8" standalone="no"?>
<svg
   xmlns:dc="http://purl.org/dc/elements/1.1/"
   xmlns:cc="http://creativecommons.org/ns#"
   xmlns:rdf="http://www.w3.org/1999/02/22-rdf-syntax-ns#"
   xmlns:svg="http://www.w3.org/2000/svg"
   xmlns="http://www.w3.org/2000/svg"
   version="1.1"
   id="svg2"
   viewBox="0 0 1600 1200"
   height="960pt"
   width="1280pt">
  <defs
     id="defs4">
    <filter
       style="color-interpolation-filters:sRGB;"
       id="filter10585">
      <feFlood
         flood-opacity="0.498039"
         flood-color="rgb(0,0,0)"
         result="flood"
         id="feFlood10587" />
      <feComposite
         in="flood"
         in2="SourceGraphic"
         operator="in"
         result="composite1"
         id="feComposite10589" />
      <feGaussianBlur
         in="composite1"
         stdDeviation="16"
         result="blur"
         id="feGaussianBlur10591" />
      <feOffset
         dx="-16"
         dy="-8"
         result="offset"
         id="feOffset10593" />
      <feComposite
         in="SourceGraphic"
         in2="offset"
         operator="over"
         result="composite2"
         id="feComposite10595" />
    </filter>
    <filter
       style="color-interpolation-filters:sRGB;"
       id="filter10597">
      <feFlood
         flood-opacity="0.498039"
         flood-color="rgb(0,0,0)"
         result="flood"
         id="feFlood10599" />
      <feComposite
         in="flood"
         in2="SourceGraphic"
         operator="in"
         result="composite1"
         id="feComposite10601" />
      <feGaussianBlur
         in="composite1"
         stdDeviation="16"
         result="blur"
         id="feGaussianBlur10603" />
      <feOffset
         dx="-16"
         dy="8"
         result="offset"
         id="feOffset10605" />
      <feComposite
         in="SourceGraphic"
         in2="offset"
         operator="over"
         result="composite2"
         id="feComposite10607" />
    </filter>
  </defs>
  <metadata
     id="metadata7">
    <rdf:RDF>
      <cc:Work
         rdf:about="">
        <dc:format>image/svg+xml</dc:format>
        <dc:type
           rdf:resource="http://purl.org/dc/dcmitype/StillImage" />
        <dc:title></dc:title>
      </cc:Work>
    </rdf:RDF>
  </metadata>
  <path
     id="rect8138"
     d="m 0,0 1600.0001,0 c 0,0 0,0 0,0 l 0,1200.0001 c 0,0 0,0 0,0 L 0,1200.0001 c 0,0 0,0 0,0 L 0,0 c 0,0 0,0 0,0 z"
     style="opacity:1;fill:#2e2e2e;fill-opacity:1;stroke:none;stroke-width:0.40000001;stroke-linecap:square;stroke-linejoin:bevel;stroke-miterlimit:4;stroke-dasharray:none;stroke-dashoffset:0;stroke-opacity:1" />
  <path
     id="rect8133"
     d="m 538,0 1062.0001,0 0,1200 -194,0 z"
     style="opacity:1;fill:#ff6600;fill-opacity:1;stroke:none;stroke-width:0.40000001;stroke-linecap:square;stroke-linejoin:bevel;stroke-miterlimit:4;stroke-dasharray:none;stroke-dashoffset:0;stroke-opacity:1;filter:url(#filter10585)" />
  <path
     style="opacity:1;fill:#363636;fill-opacity:1;stroke:none;stroke-width:0.40000001;stroke-linecap:square;stroke-linejoin:bevel;stroke-miterlimit:4;stroke-dasharray:none;stroke-dashoffset:0;stroke-opacity:1;filter:url(#filter10597)"
     d="m 538,1200 1062.0001,0 0,-1200 -194,0 z"
     id="path8136" />
  <path
     id="path14850"
     d="M 232.36523 840.86914 C 227.75223 840.9046 223.12209 841.29401 220.08203 842.07227 C 209.90119 844.6168 201.9817 850.27256 198.58789 857.3418 C 194.34611 866.24986 195.33621 876.28947 200.99219 880.81445 C 205.09186 884.20829 212.02055 887.0361 223.89844 890.14648 C 232.66471 892.40863 235.21048 893.96577 234.2207 896.50977 C 233.65506 897.9249 231.10967 899.19613 227.99805 899.48047 C 222.05979 900.04605 218.24273 898.2056 217.53516 894.66992 C 217.39345 893.53873 216.96958 892.54992 216.6875 892.4082 C 215.69679 891.70286 191.51784 891.84363 191.09375 892.55078 C 190.52812 893.54018 190.81149 899.48037 191.66016 902.30859 C 194.06317 910.79095 201.27494 916.30612 213.29492 918.56836 L 224.32227 918.56836 C 232.099 918.42658 234.50387 918.1418 237.75586 917.29492 C 252.88559 913.33542 261.51051 903.29646 261.65234 889.86328 C 261.65234 884.20702 260.66325 881.38012 257.26953 877.98633 C 253.31024 874.02718 249.35097 872.32897 235.91797 868.93555 C 231.39302 867.80439 226.86745 866.39183 225.73633 865.82617 C 224.03945 864.83695 223.75781 864.5532 223.75781 862.99805 C 223.75781 861.58491 223.9 861.15904 225.45508 860.45312 C 227.85907 859.1802 232.66523 859.1802 234.92773 860.45312 C 235.91709 861.0188 236.76677 862.00801 237.04883 862.85547 C 237.898 865.96733 237.19128 865.82667 250.48242 865.96875 L 262.7832 866.10938 L 263.34961 864.83594 C 263.77346 863.84637 263.77346 862.57428 263.34961 859.74609 C 261.93632 850.41414 255.57181 844.33325 244.54297 841.78711 C 241.5731 841.15071 236.97824 840.83368 232.36523 840.86914 z M 288.76367 843.11133 C 281.7047 843.04924 272.38115 843.3256 272.11523 843.76758 C 271.40937 845.03918 263.06713 903.7199 263.63281 904.42773 C 263.63281 904.70921 264.05665 905.13672 264.48047 905.13672 C 265.18789 905.13672 265.75229 904.00479 267.87305 898.91406 C 269.85181 893.96536 269.99496 893.2576 272.96484 872.18945 C 274.66165 860.31145 276.21653 849.98939 276.5 849.42383 C 276.7821 848.29263 277.06502 848.29102 283.57031 848.29102 C 287.24609 848.29102 290.35778 848.57511 290.49805 848.7168 C 290.78162 848.99874 287.52891 873.32153 286.25586 880.81445 C 285.97377 882.65341 285.83285 884.2075 285.97461 884.34961 L 291.76953 879.40039 L 294.31641 861.72461 C 295.72974 851.96894 296.71855 843.90888 296.57812 843.62695 C 296.41869 843.3085 292.99905 843.14858 288.76367 843.11133 z M 323.16016 843.20312 C 317.50405 843.20312 315.80804 843.34254 315.66602 843.9082 C 315.10047 845.03936 313.97039 853.38333 314.25391 853.80859 C 314.53594 854.09058 328.95928 854.23158 329.24219 853.66602 C 329.66605 852.95827 330.93781 844.05056 330.6543 843.62695 C 330.51369 843.34327 327.11943 843.20312 323.16016 843.20312 z M 365.01562 843.34375 C 355.96587 843.34375 352.99616 843.48431 352.85547 843.9082 C 352.71397 844.19182 352.00709 847.86738 351.44141 851.96875 L 350.30859 859.46289 L 346.77539 859.60352 C 344.65349 859.60352 342.95599 860.02903 342.67383 860.3125 C 341.96655 861.16013 340.2695 872.8957 340.69336 873.88672 C 340.97683 874.45236 341.82421 874.5918 344.51172 874.5918 C 346.49092 874.5918 348.04688 874.87593 348.04688 875.01758 C 348.04687 875.15763 347.057 881.80429 345.92578 889.72266 C 344.08713 902.59002 343.80543 904.42752 344.37109 906.83203 C 345.2189 911.49651 348.18889 914.32576 353.2793 915.45703 L 353.70312 915.45703 C 356.10715 916.02264 376.32782 916.1653 377.17578 915.59961 C 377.59966 915.31531 378.30655 912.48616 379.01367 907.25586 C 379.57933 903.01251 380.14453 899.05397 380.14453 898.77148 C 380.14453 898.3481 379.15587 898.20703 377.17578 898.20703 C 373.07482 898.20703 371.09483 897.78362 370.5293 896.65234 C 370.24703 895.94451 370.38884 893.11471 371.37891 886.61133 C 372.08574 881.66267 372.79213 876.85382 372.93359 876.14844 L 373.2168 874.73438 L 377.74023 874.73438 C 380.28611 874.73438 382.54793 874.59229 382.97266 874.31055 C 383.39679 874.02675 383.96377 871.62493 384.5293 867.94727 C 385.94279 858.89786 386.36702 859.74609 380.42773 859.74609 L 375.47852 859.74609 L 375.47852 858.33203 C 375.47852 857.62613 375.90309 854.09003 376.46875 850.55469 C 377.03439 847.02062 377.3173 844.04967 377.17578 843.76758 C 377.03409 843.48412 371.66143 843.34375 365.01562 843.34375 z M 422.13477 858.24414 C 410.78102 858.44573 401.03607 861.45957 395.83984 866.5332 C 393.15275 869.07719 390.60846 874.02573 390.4668 876.85352 L 390.32617 878.83594 L 401.07227 878.97656 C 407.01159 878.97656 412.24303 878.97614 412.80859 878.83594 C 413.37424 878.69384 414.07998 877.84526 414.50391 876.99609 C 415.35277 874.87565 418.04002 873.60352 421.00977 873.60352 C 425.81683 873.60352 428.07975 875.58339 425.95898 877.8457 C 424.4031 879.40124 422.28222 879.96645 412.66797 881.09766 C 397.67859 882.93437 391.03156 885.4814 386.93164 890.85352 C 384.80985 893.40028 383.39648 898.34822 383.39648 902.44727 C 383.39648 909.80008 386.64922 914.18276 393.71875 916.44531 C 398.38538 917.8608 407.01167 917.86091 412.66797 916.16406 C 415.07092 915.4562 418.18121 914.32545 419.73633 913.47852 C 421.29154 912.6285 422.56528 912.06278 422.70703 912.20508 C 422.84769 912.34725 423.12972 913.19489 423.27148 914.04492 L 423.55469 915.74023 L 435.71484 915.88086 L 447.875 916.02148 L 448.43945 914.75 C 448.86444 913.61881 448.86554 913.195 447.875 911.49805 L 446.74414 909.51953 L 449.28906 891.98438 C 451.12759 879.5413 451.83504 873.8862 451.55273 872.18945 C 450.27977 863.2812 443.35096 859.32284 427.08984 858.33203 C 425.41071 858.24379 423.75673 858.21534 422.13477 858.24414 z M 321.32227 859.46289 C 312.41413 859.46289 309.30412 859.60307 308.87891 860.02734 C 308.59681 860.31081 307.18408 868.65357 305.76953 878.55078 L 303.22461 896.50977 L 300.53711 899.05469 C 298.41645 901.03467 297.85072 902.02392 297.28516 904.14453 C 297.00304 905.70194 296.4358 906.83203 296.15234 906.83203 C 295.4463 906.83203 290.78007 903.29687 288.09375 900.46875 L 285.68945 897.92383 L 286.39844 895.80273 C 287.81176 890.99609 290.35592 886.61141 295.30469 880.95508 C 298.41488 877.27935 298.13423 877.13896 294.0332 880.39062 C 287.95311 885.05748 278.90197 897.07536 279.60938 899.33789 C 279.75113 899.90358 281.73092 901.74177 283.85156 903.57812 C 287.66914 906.69038 288.94189 908.38701 286.96289 907.53711 C 286.39732 907.39761 283.99375 906.54956 281.44922 905.56055 C 274.80358 903.15578 274.66134 903.01384 274.94336 901.03516 C 275.36862 898.34921 279.32617 887.74424 280.88281 884.91602 C 281.73048 883.50085 282.29616 882.22989 282.1543 882.08789 C 281.73057 881.66433 276.07372 888.3085 274.37695 891.13672 C 272.8218 893.82268 267.87305 904.42824 267.87305 905.27539 C 267.87305 905.70164 277.91224 910.08552 281.58789 911.2168 C 283.7102 911.92204 283.7108 912.91211 281.73047 912.91211 C 278.90235 912.91211 265.89553 915.03403 265.33008 915.59961 C 264.76443 916.1653 263.77344 922.95154 263.77344 926.48438 C 263.77344 930.0204 264.90392 937.08932 266.03516 939.49414 L 266.88477 941.47656 L 267.16602 935.67773 C 267.58992 929.03216 269.2868 920.26539 270.41797 919.41602 C 270.84339 919.13438 273.53016 918.56918 276.5 918.28516 C 279.46849 917.86164 282.01413 917.57681 282.1543 917.4375 C 282.43793 917.29544 282.71948 917.4374 282.86133 917.71875 C 283.00305 918.003 281.58898 918.99342 279.75195 919.98242 C 272.96458 923.79975 271.125 925.07216 271.125 926.62695 C 271.26677 932.2833 275.93428 943.5959 280.17578 948.40234 C 281.16517 949.67578 283.14648 951.6543 283.14648 951.6543 C 283.14648 951.6543 282.43906 949.53402 281.16602 946.99023 C 278.62149 941.75719 277.49023 936.9521 277.49023 931.86133 C 277.49023 927.75966 277.48943 927.61678 283.42773 924.08398 C 288.09436 921.25575 290.21598 920.1251 290.49805 920.40625 C 290.63988 920.54852 290.21517 922.24445 289.50781 924.22266 C 287.95272 928.88989 287.5293 932.70652 288.37695 936.66602 C 291.20512 951.23047 305.34548 951.23118 312.13281 936.95117 C 314.2536 932.56525 314.96094 928.60833 314.67773 923.79883 C 314.53578 921.25503 314.53578 920.125 314.96094 920.125 C 316.09226 920.125 324.14991 925.7796 325.56445 927.47656 C 326.41238 928.46566 325.28215 932.84909 322.5957 938.36328 C 320.75709 942.32277 319.20192 944.44369 314.53516 950.52344 L 313.54492 951.79688 L 315.10156 950.66602 C 317.92971 948.68781 322.17077 944.30119 325.28125 940.06055 C 328.25082 935.95877 332.77734 927.75821 332.77734 926.3457 C 332.77734 925.35349 330.23164 923.09189 326.41406 920.83008 C 321.60685 917.8618 322.31171 917.43848 330.23047 918.70898 C 332.7762 918.99338 335.03985 919.55931 335.32227 919.70117 C 335.60542 919.8406 335.88672 921.11276 335.88672 922.24414 C 335.88672 925.35359 334.47384 934.97071 333.625 937.79883 C 332.49378 941.19275 332.63544 941.89937 334.04883 939.91797 C 336.59464 936.10075 338.85603 931.01027 340.26953 925.49609 C 342.53199 916.87239 342.6742 916.1653 341.54297 915.59961 C 340.97732 915.45744 337.16054 914.74975 332.77734 914.04492 C 328.39415 913.47923 324.85742 912.62805 324.85742 912.48633 C 324.85742 912.34677 326.13138 911.78136 327.54492 911.35547 C 328.95889 910.93126 332.91674 909.52005 336.16992 908.38867 L 342.10938 906.125 L 341.9668 902.73242 C 341.82497 898.06523 340.27009 891.27684 338.29102 887.45898 C 336.45261 884.06539 334.75508 881.5207 334.47266 881.80273 C 334.33106 881.94426 334.61399 883.35981 335.03906 885.05664 C 336.02862 888.73219 336.87621 900.75156 336.31055 902.30859 C 336.0284 903.15546 334.61408 903.8622 329.09961 905.70117 C 325.42376 906.97172 322.02962 907.96403 321.74609 907.82227 C 321.46396 907.68 323.58592 906.1255 326.41406 904.14453 C 329.38367 902.16601 331.92777 900.18609 332.35156 899.76172 C 333.34228 898.6304 330.93867 891.41787 327.96875 886.61133 C 325.70628 882.93374 321.04041 877.70347 320.61523 878.12695 C 320.47486 878.26905 321.32187 879.96594 322.45312 881.80273 C 323.44253 883.64117 324.85827 886.61198 325.42383 888.44922 C 326.55497 892.12627 327.12035 897.35966 326.55469 898.20703 C 325.56526 899.48057 316.79806 905.55972 313.4043 907.39844 C 312.27306 907.96399 312.27312 907.96342 312.55664 905.70117 C 313.12221 902.58869 312.27187 899.76192 310.29297 898.20703 L 308.73828 896.93359 L 310.85938 881.52148 C 311.99062 873.03705 313.12189 865.68353 313.26367 865.25977 C 313.54598 864.55234 314.25291 864.41211 320.47461 864.41211 C 324.15057 864.41211 327.40314 864.69388 327.54492 864.83594 C 327.54492 865.11769 327.2628 868.37102 326.69727 872.33008 L 325.70508 879.40039 L 327.54492 881.94531 C 329.38337 884.49181 330.37305 885.19682 330.37305 883.92578 C 330.37305 883.50013 331.07872 878.12724 332.06836 871.76367 C 332.91609 865.40187 333.62433 860.02905 333.48242 859.88867 C 333.34193 859.60481 327.82735 859.46289 321.32227 859.46289 z M 461.44922 860.16992 L 461.02539 861.30078 C 460.60147 862.15016 458.48047 876.28967 458.48047 877.70508 C 458.48047 877.98649 462.86361 878.12695 468.23633 878.12695 C 473.75077 878.12695 478.13357 878.26935 478.27539 878.55078 C 478.41704 878.83503 472.90277 883.64248 465.83203 889.29883 C 454.94473 898.06482 453.10647 899.90418 452.82422 901.17773 C 451.97524 906.12621 450.98633 910.08461 450.98633 916.30664 L 478.41797 916.30664 C 493.54791 916.30664 505.98918 916.02293 506.13086 915.88086 C 506.27263 915.45732 508.11083 902.87427 508.53516 899.48047 C 508.53516 898.49078 508.25237 898.49088 497.36523 898.20703 C 489.58834 898.06502 486.19531 897.78332 486.19531 897.35938 C 486.19531 896.93349 501.88944 883.50087 508.95898 877.98633 C 509.66625 877.42064 510.5144 876.57321 510.65625 876.28906 C 511.08012 875.58355 512.91992 863.84652 512.91992 861.58398 L 512.91992 860.16992 L 461.44922 860.16992 z M 423.74414 893.08398 C 423.95184 893.07068 424.08374 893.0798 424.11914 893.11523 C 424.68478 893.68091 423.27304 897.64105 422 899.33789 C 421.15119 900.46927 420.01916 901.17662 418.32227 901.74219 C 413.23237 903.15475 409.41406 902.16642 409.41406 899.48047 C 409.41406 897.07566 411.53536 895.94412 420.44336 893.68164 C 421.82146 893.36404 423.12104 893.1239 423.74414 893.08398 z M 523.49609 901.24805 C 521.44531 901.24805 519.80469 901.93489 518.57422 903.30859 C 517.35026 904.67578 516.73828 906.51172 516.73828 908.81641 C 516.73828 911.12109 517.35026 912.95703 518.57422 914.32422 C 519.80469 915.69141 521.44531 916.375 523.49609 916.375 C 525.54037 916.375 527.17448 915.69141 528.39844 914.32422 C 529.6224 912.95052 530.23438 911.11458 530.23438 908.81641 C 530.23438 906.51172 529.6224 904.67578 528.39844 903.30859 C 527.17448 901.93489 525.54037 901.24805 523.49609 901.24805 z M 553.66211 901.24805 C 551.38346 901.24805 549.59961 901.91537 548.31055 903.25 C 547.028 904.57813 546.38672 906.43359 546.38672 908.81641 C 546.38672 911.19271 547.028 913.04818 548.31055 914.38281 C 549.59961 915.71094 551.38346 916.375 553.66211 916.375 C 554.70378 916.375 555.6836 916.23828 556.60156 915.96484 C 557.51953 915.68489 558.35937 915.27473 559.12109 914.73438 L 559.12109 908.47461 L 553.94531 908.47461 L 553.94531 910.0957 L 557.16797 910.0957 L 557.16797 914.01172 C 556.73177 914.26563 556.24023 914.45443 555.69336 914.57812 C 555.14648 914.69531 554.52474 914.75391 553.82812 914.75391 C 552.04427 914.75391 550.70313 914.25586 549.80469 913.25977 C 548.91276 912.26367 548.4668 910.78255 548.4668 908.81641 C 548.4668 906.84375 548.91276 905.35937 549.80469 904.36328 C 550.70313 903.36719 552.04427 902.86914 553.82812 902.86914 C 554.73307 902.86914 555.5957 903.02539 556.41602 903.33789 C 557.23633 903.65039 558.01107 904.11588 558.74023 904.73438 L 558.74023 902.63477 C 558.01758 902.17903 557.22657 901.83398 556.36719 901.59961 C 555.51433 901.36524 554.61263 901.24805 553.66211 901.24805 z M 533.32031 901.51172 L 533.32031 916.0918 L 535.29297 916.0918 L 535.29297 909.92969 L 537.44141 909.92969 C 538.22266 909.92969 538.83789 910.08919 539.28711 910.4082 C 539.74284 910.72721 540.21159 911.375 540.69336 912.35156 L 542.55859 916.0918 L 544.67773 916.0918 L 542.67578 912.10742 C 542.27213 911.28712 541.86849 910.64258 541.46484 910.17383 C 541.06771 909.70508 540.65756 909.39909 540.23438 909.25586 C 541.04818 909.02149 541.66666 908.60156 542.08984 907.99609 C 542.51953 907.39062 542.73438 906.6289 542.73438 905.71094 C 542.73438 904.30468 542.32422 903.25325 541.50391 902.55664 C 540.68359 901.86003 539.4401 901.51172 537.77344 901.51172 L 533.32031 901.51172 z M 523.49609 902.84961 C 524.92839 902.84961 526.0612 903.38347 526.89453 904.45117 C 527.73437 905.51889 528.1543 906.97396 528.1543 908.81641 C 528.1543 910.65234 527.73437 912.10416 526.89453 913.17188 C 526.0612 914.23958 524.92839 914.77344 523.49609 914.77344 C 522.0638 914.77344 520.92448 914.23958 520.07812 913.17188 C 519.23829 912.10416 518.81836 910.65234 518.81836 908.81641 C 518.81836 906.97396 519.23829 905.51889 520.07812 904.45117 C 520.92448 903.38347 522.0638 902.84961 523.49609 902.84961 z M 535.29297 903.13281 L 537.77344 903.13281 C 538.72396 903.13281 539.44011 903.35091 539.92188 903.78711 C 540.41016 904.2168 540.6543 904.85807 540.6543 905.71094 C 540.6543 906.5638 540.41016 907.21159 539.92188 907.6543 C 539.44011 908.0905 538.72396 908.30859 537.77344 908.30859 L 535.29297 908.30859 L 535.29297 903.13281 z M 511.38672 913.61133 L 511.38672 916.0918 L 513.44727 916.0918 L 513.44727 913.61133 L 511.38672 913.61133 z "
     style="fill:#b8b8b8;fill-opacity:1" />
</svg>
