<svg height="22" width="22" xmlns="http://www.w3.org/2000/svg"><path d="m3.5 1s-2.5 0-2.5 2.5v15s0 2.5 2.5 2.5h15s2.5 0 2.5-2.5v-15s0-2.5-2.5-2.5zm6.5 1.9-.5.5c-1.1 1.1-2 2.6-2.2 3.6l-.1.5.5.5c.8.8 1.9 1.6 2 1.5s.1-.2.1-.5c.1-.6.5-1.2 1.2-1.6.8-.4 1.4-.2 1.9.4.2.4.2.4.2 1.1v.8c.2 0 2.9-1.9 3.1-2.1.1-.1 0-1.4-.2-2.1-.1-.4-.5-1.1-.8-1.6-.5-.9-.5-.9-.2-.6.9.6 1.9 2.2 2.4 3.6.2 1 .2 1 .1 1.2-.1.1-.8.6-1.4 1s-.6.4-1 .8c.2.1 2.9-.9 3.1-1.1.1-.1.2-.4.2-.6 0-.9-.2-2.9-.4-3.5l-.1-.8c.1-.1.8.9 1 1.6.4.8.8 2.8.8 3.5v.5l-1.2.5c-.8.2-1.6.5-1.9.6-.8.2-.8.4-.1.5.9.1 3.2.5 3.4.6.1.1-.1 1.6-.6 3-.2.9-1.2 2.8-1.5 2.8s0-.2.1-.6c.4-1.2.8-4 .5-4.2l-1-.2-1.2-.2c-.5-.1-.5.1.1.5 1.1.8 1.6 1.1 1.6 1.4 0 .4-1 2.1-1.6 3l-1.2 1.5c-.8.8-1.6 1.5-1.4 1.1s.1-.1.8-1c .8-1 1.2-1.8 1.6-2.9.5-1.2.4-1.4-.5-2s-1.5-1.1-1.6-1.1v.8c.2 2.1-1 4.5-2.6 5.2-.5.2-1.5.2-1.9.1-1.5-.9-2-3.4-1-5.8 0-.1 0-.2-.1-.2-.2 0-2.5 1.4-2.8 1.6-.2.2-.1 1.8.1 2.8.1.5.4 1.2.6 1.8l.5.9-.6-.6c-.9-.9-1.6-2.5-1.9-4l-.2-1.1.2-.2 1.2-.8c1.2-.8 1.5-.9.6-.8s-2.4.4-2.5.5c-.2.4-.6 2.9-.6 3.9s0 1-.1.8l-.4-1.1c-.1-.8-.1-1-.1-2.4.1-2.1.1-2.1.6-2.2l3.1-.5c.6-.1.8-.2.4-.4l-3.2-1.2c-.1-.1.1-.9.9-2.2.5-.9.9-1.6 1.5-2.2l.9-.9-.4.8c-.5.8-1.4 3.6-1.4 3.8 0 .1 2.9 1.2 3 1.1l-.9-.9c-.5-.5-1-.9-1-1s .2-.6.5-1.1c.4-.8.9-1.2 1.8-2.1.6-.6 1.2-1.1 1.9-1.6z" fill="#dbdee0"/></svg>